{"title":"The.Story.Of.Us.1999.DVDRiP.XviD.OPTIONAL-MULTISUB-Zen_Bud","uid":6817027,"size":1542980216,"categoryP":"video","categoryS":"movies","magnet":"?xt=urn:btih:22ac104f16d987f24dbd98a67325832d2ede8583&amp;dn=The.Story.Of.Us.1999.DVDRiP.XviD.OPTIONAL-MULTISUB-Zen_Bud&amp;tr=udp%3A%2F%2Ftracker.openbittorrent.com%3A80&amp;tr=udp%3A%2F%2Fopen.demonii.com%3A1337&amp;tr=udp%3A%2F%2Ftracker.coppersurfer.tk%3A6969&amp;tr=udp%3A%2F%2Fexodus.desync.com%3A6969","seeders":2,"leechers":2,"uploader":"Zen_Bud","files":-1,"time":1321251965,"description":"\n      The.Story.Of.Us.1999.DVDRiP.XviD.OPTIONAL-MULTISUB-Zen_Bud\n\nFormat                           : AVI\nFile size                        : 1.37 GiB\nDuration                         : 1h 31mn\nOverall bit rate                 : 2 148 Kbps\n\nVideo\n\nFormat                           : MPEG-4 Visual\nFormat profile                   : Simple@L3\nFormat settings, BVOP            : No\nFormat settings, QPel            : No\nFormat settings, GMC             : No warppoints\nFormat settings, Matrix          : Default (H.263)\nCodec ID                         : XVID\nDuration                         : 1h 31mn\nBit rate                         : 1 753 Kbps\nWidth                            : 718 pixels\nHeight                           : 576 pixels\nDisplay aspect ratio             : 16:9\nFrame rate                       : 25.000 fps\nColor space                      : YUV\nChroma subsampling               : 4:2:0\nBit depth                        : 8 bits\nScan type                        : Progressive\nCompression mode                 : Lossy\nBits/(Pixel*Frame)               : 0.170\nStream size                      : 1.12 GiB (82%)\nWriting library                  : XviD 1.1.2 (UTC 2006-11-01)\n\nAudio\n\nFormat                           : AC-3\nCodec ID                         : 2000\nDuration                         : 1h 31mn\nBit rate mode                    : Constant\nBit rate                         : 384 Kbps\nChannel(s)                       : 6 channels\nChannel positions                : Front: L C R, Side: L R, LFE\nSampling rate                    : 48.0 KHz\nBit depth                        : 16 bits\nCompression mode                 : Lossy\nStream size                      : 252 MiB (18%)\nLanguage                         : English\n\n\nText #1\nID                               : 3\nFormat                           : VobSub\nCodec ID                         : S_VOBSUB\nLanguage                         : English\n\nText #2\nID                               : 4\nFormat                           : VobSub\nCodec ID                         : S_VOBSUB\nLanguage                         : German\n\nText #3\nID                               : 5\nFormat                           : VobSub\nCodec ID                         : S_VOBSUB\nLanguage                         : Spanish\n\nText #4\nID                               : 6\nFormat                           : VobSub\nCodec ID                         : S_VOBSUB\nLanguage                         : Dutch\n\nText #5\nID                               : 7\nFormat                           : VobSub\nCodec ID                         : S_VOBSUB\nLanguage                         : Swedish\n\nText #6\nID                               : 8\nFormat                           : VobSub\nCodec ID                         : S_VOBSUB\nLanguage                         : Norwegian\n\nText #7\nID                               : 9\nFormat                           : VobSub\nCodec ID                         : S_VOBSUB\nLanguage                         : Danish\n\nText #8\nID                               : 10\nFormat                           : VobSub\nCodec ID                         : S_VOBSUB\nLanguage                         : Finnish\n\nText #9\nID                               : 11\nFormat                           : VobSub\nCodec ID                         : S_VOBSUB\nLanguage                         : Portuguese\n\nText #10\nID                               : 12\nFormat                           : VobSub\nCodec ID                         : S_VOBSUB\nLanguage                         : Hebrew\n\nText #11\nID                               : 13\nFormat                           : VobSub\nCodec ID                         : S_VOBSUB\nLanguage                         : Polish\n\nText #12\nID                               : 14\nFormat                           : VobSub\nCodec ID                         : S_VOBSUB\nLanguage                         : Greek\n\nText #13\nID                               : 15\nFormat                           : VobSub\nCodec ID                         : S_VOBSUB\nLanguage                         : Czech\n\nText #14\nID                               : 16\nFormat                           : VobSub\nCodec ID                         : S_VOBSUB\nLanguage                         : Turkish\n\nText #15\nID                               : 17\nFormat                           : VobSub\nCodec ID                         : S_VOBSUB\nLanguage                         : Hungarian\n\nText #16\nID                               : 18\nFormat                           : VobSub\nCodec ID                         : S_VOBSUB\nLanguage                         : Icelandic\n\nText #17\nID                               : 19\nFormat                           : VobSub\nCodec ID                         : S_VOBSUB\nLanguage                         : Croatian\n\nText #18\nID                               : 20\nFormat                           : VobSub\nCodec ID                         : S_VOBSUB\nLanguage                         : French\n\nText #19\nID                               : 21\nFormat                           : VobSub\nCodec ID                         : S_VOBSUB\nLanguage                         : Italian\n\n","torrent":{"xt":"urn:btih:22ac104f16d987f24dbd98a67325832d2ede8583","amp;dn":"The.Story.Of.Us.1999.DVDRiP.XviD.OPTIONAL-MULTISUB-Zen_Bud","amp;tr":["udp%3A%2F%2Ftracker.openbittorrent.com%3A80","udp%3A%2F%2Fopen.demonii.com%3A1337","udp%3A%2F%2Ftracker.coppersurfer.tk%3A6969","udp%3A%2F%2Fexodus.desync.com%3A6969"],"infoHash":"22ac104f16d987f24dbd98a67325832d2ede8583","infoHashBuffer":{"type":"Buffer","data":[34,172,16,79,22,217,135,242,77,189,152,166,115,37,131,45,46,222,133,131]},"announce":[],"urlList":[]}}